<svg width="32" height="29" viewBox="0 0 32 29" fill="none" xmlns="http://www.w3.org/2000/svg">
<path d="M17.6458 14.0232L21.4524 10.6492L9.15721 4.52411C8.34234 4.13388 7.57896 4.07911 6.90955 4.50586L17.6458 14.0232ZM22.1012 17.9735L26.0584 16.0006C26.8308 15.6172 27.2543 15.0741 27.2543 14.4716C27.2543 13.8703 26.8308 13.326 26.0597 12.9427L22.4771 11.1592L18.4439 14.7329L22.1012 17.9735ZM6.24787 5.33539C6.16548 5.56017 6.11914 5.8112 6.11914 6.08619V22.8651C6.11914 23.2998 6.22728 23.6741 6.42295 23.9719L16.8464 14.7318L6.24787 5.33539ZM17.6458 15.4392L7.2803 24.628C7.47855 24.6953 7.69224 24.7307 7.91753 24.7307C8.31917 24.7307 8.73755 24.6257 9.16365 24.4157L21.0778 18.4858L17.6458 15.4392Z" fill="white"/>
</svg>
