<svg width="29" height="29" viewBox="0 0 29 29" fill="none" xmlns="http://www.w3.org/2000/svg">
<path d="M14.1503 26.0418C7.67242 26.0418 2.42139 20.7908 2.42139 14.3129C2.42139 7.83502 7.67242 2.58398 14.1503 2.58398C20.6282 2.58398 25.8792 7.83502 25.8792 14.3129C25.8722 20.7873 20.6247 26.0348 14.1503 26.0418ZM9.13853 17.5817C8.98723 17.5817 8.8371 17.6005 8.68932 17.6357L8.51338 17.6838L7.81668 18.8766C7.68943 19.0889 7.64856 19.3419 7.70254 19.5835C7.75651 19.825 7.9012 20.0366 8.10671 20.1745C8.31222 20.3124 8.56285 20.3661 8.80683 20.3245C9.0508 20.2829 9.26948 20.1492 9.41768 19.951L9.4904 19.8419L10.417 18.2339C10.2668 18.033 10.0722 17.8696 9.84837 17.7565C9.62455 17.6434 9.37759 17.5836 9.1268 17.5817H9.13853ZM15.5707 10.3954C15.2057 10.7382 14.9638 11.1916 14.8822 11.6856C14.7514 12.3668 14.8767 13.0722 15.234 13.6666L18.7996 19.8431C18.9237 20.0519 19.1216 20.2065 19.3542 20.2764C19.5868 20.3464 19.8372 20.3265 20.0558 20.2207C20.2738 20.1132 20.4432 19.9274 20.5302 19.7004C20.6172 19.4734 20.6153 19.2219 20.525 18.9962L20.4675 18.879L19.5292 17.2475H20.9249C21.1693 17.2454 21.4039 17.1507 21.5812 16.9825C21.7585 16.8142 21.8654 16.585 21.8803 16.341C21.8952 16.097 21.817 15.8565 21.6614 15.6679C21.5059 15.4794 21.2846 15.3568 21.0422 15.3251L20.9249 15.3181H18.4149L15.8416 10.8611L15.573 10.3919L15.5707 10.3954ZM7.4179 15.3099C7.29186 15.3102 7.16713 15.3353 7.05083 15.3839C6.93453 15.4325 6.82896 15.5036 6.74017 15.593C6.65137 15.6825 6.5811 15.7885 6.53336 15.9052C6.48563 16.0218 6.46138 16.1468 6.462 16.2728C6.462 16.7584 6.82325 17.1689 7.3053 17.231L7.42259 17.2369H16.1958C16.2929 17.0419 16.3418 16.8265 16.3383 16.6087C16.3348 16.391 16.2791 16.1772 16.1759 15.9854C16.0881 15.8058 15.9572 15.6506 15.7949 15.5338C15.6327 15.4169 15.444 15.342 15.2458 15.3157L15.1039 15.3087H12.1118L16.2498 8.14349C16.3772 7.92137 16.4118 7.65791 16.3459 7.41043C16.2991 7.23676 16.2047 7.07961 16.0734 6.95666C15.9421 6.83372 15.7791 6.74985 15.6028 6.7145C15.4264 6.67916 15.2436 6.69373 15.0751 6.75659C14.9066 6.81944 14.7589 6.92809 14.6488 7.07029L14.5761 7.1782L14.1503 7.92181L13.7292 7.1782C13.6051 6.96912 13.407 6.81427 13.1742 6.74433C12.9413 6.67438 12.6907 6.69444 12.4719 6.80053C12.254 6.90849 12.0847 7.09455 11.9978 7.32167C11.9108 7.54879 11.9126 7.80032 12.0027 8.0262L12.0602 8.14349L13.0337 9.85591L9.88449 15.3099H7.4179Z" fill="white"/>
</svg>
